<?xml version="1.0" encoding="UTF-8" standalone="no"?>
<!DOCTYPE svg PUBLIC "-//W3C//DTD SVG 1.1//EN" "http://www.w3.org/Graphics/SVG/1.1/DTD/svg11.dtd">
<svg width="100%" height="100%" viewBox="0 0 495 147" version="1.1" xmlns="http://www.w3.org/2000/svg" xmlns:xlink="http://www.w3.org/1999/xlink" xml:space="preserve" xmlns:serif="http://www.serif.com/" style="fill-rule:evenodd;clip-rule:evenodd;stroke-linejoin:round;stroke-miterlimit:2;">
    <g transform="matrix(1,0,0,1,-1446.31,-444.84)">
        <g transform="matrix(1,0,0,1,1181.65,0)">
            <g transform="matrix(1.87284,0,0,1.87284,-445.862,-485.627)">
                <g transform="matrix(5.33042,0,0,5.33042,-1597.3,-2062.83)">
                    <g transform="matrix(12,0,0,12,370.489,485.692)">
                        <path d="M0.417,-0.066C0.352,-0.14 0.325,-0.178 0.258,-0.254C0.254,-0.259 0.252,-0.262 0.255,-0.266C0.3,-0.315 0.329,-0.342 0.377,-0.384C0.408,-0.412 0.422,-0.42 0.465,-0.425C0.469,-0.426 0.472,-0.454 0.465,-0.454C0.427,-0.45 0.388,-0.448 0.377,-0.448C0.352,-0.448 0.333,-0.447 0.302,-0.45C0.294,-0.45 0.292,-0.42 0.3,-0.418C0.323,-0.413 0.333,-0.395 0.323,-0.384C0.323,-0.384 0.22,-0.278 0.191,-0.252C0.186,-0.247 0.181,-0.245 0.176,-0.245C0.173,-0.245 0.173,-0.25 0.173,-0.253C0.173,-0.296 0.174,-0.32 0.176,-0.375C0.176,-0.389 0.18,-0.402 0.187,-0.408C0.201,-0.42 0.209,-0.423 0.226,-0.425C0.233,-0.426 0.234,-0.45 0.226,-0.45C0.188,-0.45 0.173,-0.447 0.14,-0.447C0.102,-0.447 0.082,-0.45 0.042,-0.45C0.036,-0.45 0.036,-0.427 0.042,-0.425C0.059,-0.421 0.069,-0.414 0.083,-0.402C0.092,-0.394 0.098,-0.387 0.098,-0.375L0.098,-0.083C0.098,-0.068 0.096,-0.058 0.086,-0.047C0.071,-0.031 0.055,-0.025 0.036,-0.02C0.024,-0.018 0.028,0.004 0.036,0.004C0.071,0.004 0.099,-0 0.14,-0C0.174,-0 0.189,0.004 0.226,0.004C0.237,0.004 0.237,-0.018 0.226,-0.02C0.206,-0.025 0.198,-0.031 0.185,-0.044C0.18,-0.049 0.176,-0.067 0.176,-0.083C0.174,-0.139 0.173,-0.166 0.173,-0.21C0.173,-0.215 0.172,-0.225 0.176,-0.225C0.179,-0.225 0.186,-0.219 0.191,-0.213C0.245,-0.153 0.29,-0.096 0.326,-0.057C0.336,-0.047 0.337,-0.043 0.337,-0.036C0.337,-0.027 0.313,-0.025 0.296,-0.02C0.29,-0.019 0.29,0.004 0.298,0.004C0.313,0.004 0.373,-0 0.421,-0C0.454,-0 0.479,0.007 0.499,0.007C0.509,0.007 0.505,-0.016 0.499,-0.018C0.46,-0.029 0.446,-0.033 0.417,-0.066Z" style="fill:white;fill-rule:nonzero;"/>
                    </g>
                    <g transform="matrix(12,0,0,12,379.177,485.692)">
                        <path d="M0.066,-0.217C0.066,-0.088 0.17,0.015 0.303,0.015C0.467,0.015 0.552,-0.098 0.552,-0.221C0.552,-0.357 0.436,-0.456 0.303,-0.456C0.175,-0.456 0.066,-0.34 0.066,-0.217ZM0.297,-0.424C0.417,-0.424 0.468,-0.313 0.468,-0.212C0.468,-0.133 0.434,-0.022 0.319,-0.022C0.207,-0.022 0.151,-0.115 0.151,-0.232C0.151,-0.327 0.185,-0.424 0.297,-0.424Z" style="fill:white;fill-rule:nonzero;"/>
                    </g>
                    <g transform="matrix(12,0,0,12,388.837,485.692)">
                        <path d="M0.169,-0.024C0.09,-0.024 0.058,-0.121 0.05,-0.121C0.042,-0.121 0.03,-0.116 0.03,-0.11C0.031,-0.085 0.045,-0.031 0.053,-0.015C0.055,-0.012 0.053,-0.009 0.064,-0.007C0.089,-0.002 0.118,0.011 0.172,0.011C0.285,0.011 0.331,-0.065 0.331,-0.12C0.331,-0.19 0.26,-0.24 0.221,-0.265C0.184,-0.289 0.127,-0.32 0.127,-0.364C0.127,-0.402 0.149,-0.423 0.196,-0.423C0.221,-0.423 0.27,-0.415 0.288,-0.352C0.29,-0.342 0.308,-0.335 0.312,-0.335C0.316,-0.335 0.32,-0.346 0.32,-0.352C0.32,-0.376 0.314,-0.402 0.309,-0.426C0.308,-0.432 0.304,-0.44 0.296,-0.441C0.281,-0.443 0.253,-0.458 0.205,-0.458C0.102,-0.458 0.053,-0.382 0.053,-0.34C0.053,-0.285 0.096,-0.236 0.148,-0.203C0.207,-0.165 0.247,-0.144 0.247,-0.099C0.247,-0.057 0.231,-0.024 0.169,-0.024Z" style="fill:white;fill-rule:nonzero;"/>
                    </g>
                    <g transform="matrix(12,0,0,12,395.713,485.692)">
                        <path d="M0.365,0.001C0.374,-0.019 0.517,-0.323 0.517,-0.323C0.523,-0.336 0.526,-0.339 0.527,-0.323C0.531,-0.229 0.537,-0.171 0.535,-0.073C0.535,-0.06 0.53,-0.052 0.521,-0.043C0.51,-0.031 0.511,-0.029 0.486,-0.022C0.48,-0.02 0.48,0.003 0.489,0.003C0.505,0.003 0.557,-0.001 0.6,-0.001C0.634,-0.001 0.661,0.003 0.682,0.003C0.692,0.003 0.688,-0.02 0.682,-0.022C0.661,-0.026 0.651,-0.032 0.636,-0.045C0.626,-0.053 0.621,-0.06 0.62,-0.073C0.61,-0.196 0.608,-0.265 0.607,-0.388C0.607,-0.401 0.607,-0.412 0.618,-0.42C0.636,-0.432 0.637,-0.427 0.66,-0.434C0.666,-0.436 0.673,-0.457 0.666,-0.456C0.634,-0.452 0.611,-0.447 0.576,-0.447L0.53,-0.447C0.525,-0.447 0.513,-0.412 0.503,-0.389C0.456,-0.273 0.438,-0.22 0.381,-0.104C0.375,-0.091 0.37,-0.093 0.365,-0.106C0.311,-0.237 0.278,-0.322 0.227,-0.45C0.224,-0.457 0.147,-0.443 0.073,-0.455C0.065,-0.457 0.066,-0.433 0.074,-0.431C0.091,-0.427 0.118,-0.421 0.132,-0.405C0.144,-0.391 0.143,-0.385 0.143,-0.367C0.143,-0.309 0.129,-0.188 0.112,-0.063C0.111,-0.054 0.108,-0.044 0.099,-0.037C0.084,-0.026 0.077,-0.026 0.055,-0.021C0.048,-0.02 0.047,0.003 0.055,0.003C0.079,0.003 0.104,-0.001 0.136,-0.001C0.166,-0.001 0.186,0.003 0.213,0.003C0.225,0.003 0.219,-0.02 0.213,-0.021C0.191,-0.026 0.187,-0.028 0.176,-0.04C0.164,-0.052 0.156,-0.061 0.156,-0.079C0.161,-0.173 0.169,-0.231 0.179,-0.328C0.18,-0.338 0.184,-0.337 0.188,-0.328C0.244,-0.201 0.279,-0.104 0.328,-0.001C0.337,0.018 0.354,0.026 0.365,0.001Z" style="fill:white;fill-rule:nonzero;"/>
                    </g>
                    <g transform="matrix(12,0,0,12,406.753,485.692)">
                        <path d="M0.066,-0.217C0.066,-0.088 0.17,0.015 0.303,0.015C0.467,0.015 0.552,-0.098 0.552,-0.221C0.552,-0.357 0.436,-0.456 0.303,-0.456C0.175,-0.456 0.066,-0.34 0.066,-0.217ZM0.297,-0.424C0.417,-0.424 0.468,-0.313 0.468,-0.212C0.468,-0.133 0.434,-0.022 0.319,-0.022C0.207,-0.022 0.151,-0.115 0.151,-0.232C0.151,-0.327 0.185,-0.424 0.297,-0.424Z" style="fill:white;fill-rule:nonzero;"/>
                    </g>
                    <g transform="matrix(12,0,0,12,416.413,485.692)">
                        <path d="M0.169,-0.024C0.09,-0.024 0.058,-0.121 0.05,-0.121C0.042,-0.121 0.03,-0.116 0.03,-0.11C0.031,-0.085 0.045,-0.031 0.053,-0.015C0.055,-0.012 0.053,-0.009 0.064,-0.007C0.089,-0.002 0.118,0.011 0.172,0.011C0.285,0.011 0.331,-0.065 0.331,-0.12C0.331,-0.19 0.26,-0.24 0.221,-0.265C0.184,-0.289 0.127,-0.32 0.127,-0.364C0.127,-0.402 0.149,-0.423 0.196,-0.423C0.221,-0.423 0.27,-0.415 0.288,-0.352C0.29,-0.342 0.308,-0.335 0.312,-0.335C0.316,-0.335 0.32,-0.346 0.32,-0.352C0.32,-0.376 0.314,-0.402 0.309,-0.426C0.308,-0.432 0.304,-0.44 0.296,-0.441C0.281,-0.443 0.253,-0.458 0.205,-0.458C0.102,-0.458 0.053,-0.382 0.053,-0.34C0.053,-0.285 0.096,-0.236 0.148,-0.203C0.207,-0.165 0.247,-0.144 0.247,-0.099C0.247,-0.057 0.231,-0.024 0.169,-0.024Z" style="fill:white;fill-rule:nonzero;"/>
                    </g>
                </g>
                <g transform="matrix(3.32601,0,0,3.32601,-804.136,-1040.99)">
                    <g transform="matrix(12,0,0,12,367.003,485.692)">
                        <path d="M0.242,-0.429C0.248,-0.43 0.252,-0.453 0.242,-0.453C0.224,-0.454 0.163,-0.45 0.112,-0.45C0.082,-0.45 0.065,-0.452 0.036,-0.452C0.027,-0.452 0.03,-0.429 0.036,-0.428C0.063,-0.42 0.066,-0.421 0.08,-0.406C0.087,-0.398 0.089,-0.374 0.089,-0.354L0.089,-0.084C0.089,-0.066 0.082,-0.055 0.069,-0.042C0.055,-0.028 0.046,-0.027 0.023,-0.021C0.017,-0.02 0.018,0.001 0.023,0.001C0.023,0.001 0.094,-0.002 0.129,-0.002C0.199,-0.002 0.291,0.002 0.395,0.002C0.402,0.002 0.41,-0.004 0.41,-0.01C0.413,-0.039 0.422,-0.076 0.432,-0.112C0.433,-0.117 0.428,-0.121 0.423,-0.121C0.412,-0.122 0.398,-0.119 0.395,-0.114C0.383,-0.089 0.375,-0.071 0.354,-0.05C0.342,-0.038 0.318,-0.032 0.314,-0.032L0.218,-0.032C0.172,-0.032 0.164,-0.058 0.164,-0.086L0.164,-0.353C0.164,-0.373 0.169,-0.398 0.177,-0.406C0.19,-0.421 0.214,-0.421 0.242,-0.429Z" style="fill:white;fill-opacity:0.12;fill-rule:nonzero;"/>
                    </g>
                    <g transform="matrix(12,0,0,12,374.731,485.692)">
                        <path d="M0.066,-0.217C0.066,-0.088 0.17,0.015 0.303,0.015C0.467,0.015 0.552,-0.098 0.552,-0.221C0.552,-0.357 0.436,-0.456 0.303,-0.456C0.175,-0.456 0.066,-0.34 0.066,-0.217ZM0.297,-0.424C0.417,-0.424 0.468,-0.313 0.468,-0.212C0.468,-0.133 0.434,-0.022 0.319,-0.022C0.207,-0.022 0.151,-0.115 0.151,-0.232C0.151,-0.327 0.185,-0.424 0.297,-0.424Z" style="fill:white;fill-opacity:0.12;fill-rule:nonzero;"/>
                    </g>
                    <g transform="matrix(12,0,0,12,384.391,485.692)">
                        <path d="M0.037,0.003C0.064,0.003 0.08,-0.002 0.108,-0.002C0.147,-0.002 0.167,0.003 0.207,0.003C0.216,0.003 0.216,-0.019 0.207,-0.021C0.194,-0.024 0.176,-0.034 0.165,-0.051C0.161,-0.058 0.162,-0.071 0.164,-0.084C0.167,-0.102 0.168,-0.096 0.18,-0.127C0.184,-0.136 0.185,-0.139 0.192,-0.139L0.334,-0.139C0.348,-0.139 0.351,-0.138 0.353,-0.132C0.363,-0.105 0.362,-0.114 0.367,-0.089C0.37,-0.076 0.373,-0.062 0.365,-0.048C0.355,-0.032 0.341,-0.024 0.325,-0.021C0.319,-0.02 0.315,0.003 0.324,0.003C0.357,0.003 0.387,-0.002 0.428,-0.002C0.466,-0.002 0.487,0.003 0.524,0.003C0.536,0.003 0.531,-0.019 0.524,-0.021C0.507,-0.025 0.491,-0.037 0.479,-0.05C0.461,-0.069 0.452,-0.084 0.444,-0.107C0.397,-0.232 0.367,-0.323 0.319,-0.454C0.317,-0.46 0.316,-0.463 0.312,-0.463C0.309,-0.463 0.306,-0.458 0.298,-0.449C0.292,-0.442 0.262,-0.42 0.253,-0.418C0.252,-0.417 0.251,-0.398 0.248,-0.386C0.246,-0.376 0.243,-0.366 0.241,-0.36C0.193,-0.243 0.174,-0.195 0.125,-0.092C0.116,-0.074 0.11,-0.063 0.094,-0.05C0.075,-0.034 0.058,-0.028 0.037,-0.021C0.031,-0.019 0.029,0.003 0.037,0.003ZM0.27,-0.337C0.276,-0.352 0.276,-0.352 0.282,-0.337C0.293,-0.306 0.33,-0.203 0.337,-0.176C0.34,-0.166 0.339,-0.166 0.329,-0.166L0.212,-0.166C0.2,-0.166 0.195,-0.167 0.199,-0.176C0.221,-0.224 0.253,-0.295 0.27,-0.337Z" style="fill:white;fill-opacity:0.12;fill-rule:nonzero;"/>
                    </g>
                    <g transform="matrix(12,0,0,12,393.451,485.692)">
                        <path d="M0.263,0.003C0.348,0.003 0.419,-0.037 0.452,-0.079C0.475,-0.108 0.505,-0.153 0.506,-0.235C0.507,-0.351 0.42,-0.453 0.243,-0.453C0.225,-0.453 0.14,-0.446 0.115,-0.446C0.083,-0.446 0.061,-0.448 0.033,-0.448C0.023,-0.448 0.028,-0.425 0.034,-0.423C0.059,-0.416 0.061,-0.415 0.074,-0.4C0.081,-0.392 0.083,-0.369 0.083,-0.35L0.083,-0.089C0.082,-0.071 0.076,-0.061 0.064,-0.048C0.051,-0.034 0.04,-0.029 0.021,-0.024C0.016,-0.023 0.016,-0 0.021,-0C0.039,-0 0.084,-0.004 0.125,-0.003C0.179,-0.002 0.25,0.003 0.263,0.003ZM0.181,-0.043C0.167,-0.054 0.158,-0.063 0.158,-0.091L0.158,-0.383C0.158,-0.411 0.189,-0.422 0.246,-0.422C0.357,-0.421 0.421,-0.319 0.421,-0.242C0.421,-0.155 0.399,-0.106 0.376,-0.081C0.357,-0.061 0.329,-0.033 0.267,-0.033C0.224,-0.033 0.195,-0.032 0.181,-0.043L0.181,-0.043Z" style="fill:white;fill-opacity:0.12;fill-rule:nonzero;"/>
                    </g>
                    <g transform="matrix(12,0,0,12,402.079,485.692)">
                        <path d="M0.203,-0.377C0.203,-0.389 0.209,-0.398 0.217,-0.404C0.231,-0.417 0.246,-0.422 0.263,-0.429C0.27,-0.432 0.272,-0.452 0.263,-0.452C0.222,-0.452 0.205,-0.45 0.168,-0.45C0.129,-0.45 0.111,-0.452 0.068,-0.452C0.062,-0.452 0.061,-0.432 0.068,-0.429C0.085,-0.422 0.097,-0.418 0.112,-0.405C0.122,-0.397 0.128,-0.39 0.128,-0.377L0.128,-0.082C0.128,-0.067 0.126,-0.055 0.115,-0.045C0.098,-0.029 0.082,-0.025 0.061,-0.021C0.049,-0.018 0.053,0.003 0.061,0.003C0.099,0.003 0.126,-0.002 0.168,-0.002C0.208,-0.002 0.23,0.003 0.27,0.003C0.282,0.003 0.282,-0.018 0.27,-0.021C0.249,-0.025 0.234,-0.03 0.217,-0.045C0.206,-0.055 0.203,-0.067 0.203,-0.082L0.203,-0.377Z" style="fill:white;fill-opacity:0.12;fill-rule:nonzero;"/>
                    </g>
                    <g transform="matrix(12,0,0,12,408.319,485.692)">
                        <path d="M0.067,0.003C0.096,0.003 0.113,-0.001 0.142,-0.001C0.172,-0.001 0.184,0.003 0.218,0.003C0.23,0.003 0.228,-0.02 0.221,-0.021C0.2,-0.025 0.196,-0.028 0.186,-0.04C0.177,-0.05 0.176,-0.06 0.175,-0.073C0.173,-0.135 0.177,-0.271 0.179,-0.332C0.18,-0.341 0.184,-0.351 0.204,-0.329C0.313,-0.205 0.371,-0.137 0.472,-0.013C0.48,-0.004 0.5,0.014 0.522,0.014C0.536,0.014 0.547,0.002 0.547,-0.013C0.547,-0.159 0.543,-0.238 0.552,-0.382C0.553,-0.395 0.565,-0.405 0.571,-0.409C0.577,-0.414 0.586,-0.422 0.606,-0.425C0.613,-0.425 0.61,-0.447 0.606,-0.447C0.576,-0.447 0.555,-0.443 0.523,-0.443C0.489,-0.443 0.471,-0.447 0.435,-0.447C0.43,-0.447 0.431,-0.426 0.435,-0.425C0.448,-0.42 0.503,-0.409 0.504,-0.378C0.508,-0.266 0.511,-0.214 0.507,-0.11C0.506,-0.083 0.494,-0.105 0.489,-0.11C0.38,-0.233 0.325,-0.308 0.219,-0.434C0.213,-0.441 0.211,-0.449 0.203,-0.449C0.152,-0.449 0.113,-0.447 0.059,-0.449C0.05,-0.449 0.05,-0.425 0.059,-0.425C0.07,-0.424 0.102,-0.422 0.123,-0.397C0.131,-0.387 0.129,-0.381 0.129,-0.361C0.129,-0.248 0.128,-0.19 0.122,-0.081C0.121,-0.064 0.119,-0.05 0.107,-0.037C0.096,-0.025 0.085,-0.024 0.067,-0.021C0.061,-0.02 0.058,0.003 0.067,0.003Z" style="fill:white;fill-opacity:0.12;fill-rule:nonzero;"/>
                    </g>
                    <g transform="matrix(12,0,0,12,418.291,485.692)">
                        <path d="M0.272,-0.024C0.167,-0.024 0.104,-0.13 0.104,-0.238C0.104,-0.342 0.177,-0.421 0.275,-0.422C0.341,-0.423 0.369,-0.403 0.378,-0.393C0.389,-0.379 0.396,-0.361 0.401,-0.347C0.404,-0.339 0.417,-0.328 0.431,-0.328C0.437,-0.328 0.442,-0.335 0.442,-0.342C0.442,-0.36 0.436,-0.392 0.429,-0.42C0.426,-0.432 0.417,-0.436 0.404,-0.44C0.373,-0.45 0.341,-0.454 0.29,-0.454C0.151,-0.454 0.02,-0.357 0.02,-0.222C0.02,-0.088 0.137,0.012 0.271,0.012C0.297,0.012 0.331,0.007 0.367,-0.004C0.399,-0.013 0.416,-0.023 0.446,-0.039C0.452,-0.042 0.456,-0.048 0.456,-0.052C0.456,-0.055 0.45,-0.058 0.447,-0.063C0.445,-0.067 0.443,-0.069 0.443,-0.074C0.443,-0.102 0.443,-0.117 0.446,-0.145C0.448,-0.163 0.465,-0.172 0.485,-0.178C0.49,-0.18 0.492,-0.194 0.492,-0.205C0.492,-0.209 0.487,-0.211 0.483,-0.211C0.458,-0.211 0.435,-0.209 0.405,-0.209C0.367,-0.209 0.342,-0.212 0.301,-0.212C0.298,-0.212 0.298,-0.207 0.298,-0.204C0.3,-0.194 0.305,-0.178 0.312,-0.178C0.326,-0.178 0.366,-0.172 0.379,-0.157C0.385,-0.149 0.381,-0.123 0.381,-0.102C0.381,-0.078 0.377,-0.057 0.36,-0.046C0.348,-0.039 0.307,-0.024 0.272,-0.024Z" style="fill:white;fill-opacity:0.12;fill-rule:nonzero;"/>
                    </g>
                </g>
            </g>
        </g>
    </g>
</svg>
